#Comment line ignore any data following # character 
#Hierarchical Translation and Rotation (.htr) file 
[Header]	
#Header keywords are followed by a single value 
FileType HTR		#Single word string
DataType HTRS		#Translation followed by rotation and scale data
FileVersion 1		#integer
NumSegments 84		#integer
NumFrames 2		#integer
DataFrameRate 30		#integer, data frame rate in this file
EulerRotationOrder ZYX
CalibrationUnits mm
RotationUnits Degrees
GlobalAxisofGravity Y
BoneLengthAxis Y
ScaleFactor 1.00
[SegmentNames&Hierarchy]
#CHILD	PARENT
MASTER GLOBAL
root MASTER
chest root
L_mid_tent01 root
R_mid_tent01 root
spine01 root
Bip01_Neck chest
L_humerus chest
R_humerus chest
weapon_bone chest
Bip01_Head Bip01_Neck
eye_left_bone Bip01_Head
eye_right_bone Bip01_Head
L_forearm L_humerus
L_front_hand L_forearm
L_weapon_bone L_forearm
L_front_hand01_01 L_front_hand
L_front_hand02_01 L_front_hand
L_front_hand03_01 L_front_hand
L_front_hand01_02 L_front_hand01_01
L_front_hand02_02 L_front_hand02_01
L_front_hand03_02 L_front_hand03_01
R_forearm R_humerus
R_front_hand R_forearm
R_weapon_bone R_forearm
R_front_hand01_01 R_front_hand
R_front_hand02_01 R_front_hand
R_front_hand03_01 R_front_hand
R_front_hand01_02 R_front_hand01_01
R_front_hand02_02 R_front_hand02_01
R_front_hand03_02 R_front_hand03_01
null_rope01_connect L_mid_tent01
Rope1_Seg01 null_rope01_connect
Rope1_Seg02 Rope1_Seg01
Rope1_Seg03 Rope1_Seg02
Rope1_Seg04 Rope1_Seg03
Rope1_Seg05 Rope1_Seg04
Rope1_Seg06 Rope1_Seg05
Rope1_Seg07 Rope1_Seg06
Rope1_Seg09 Rope1_Seg07
L_mid_hand01 Rope1_Seg09
L_mid_hand02 Rope1_Seg09
L_mid_hand03 Rope1_Seg09
null_rope02_connect R_mid_tent01
Rope2_Seg01 null_rope02_connect
Rope2_Seg02 Rope2_Seg01
Rope2_Seg03 Rope2_Seg02
Rope2_Seg04 Rope2_Seg03
Rope2_Seg05 Rope2_Seg04
Rope2_Seg06 Rope2_Seg05
Rope2_Seg07 Rope2_Seg06
Rope2_Seg09 Rope2_Seg07
R_mid_hand01 Rope2_Seg09
R_mid_hand02 Rope2_Seg09
R_mid_hand03 Rope2_Seg09
spine02 spine01
spine03 spine02
pelvis spine03
null_rope03_connect pelvis
null_rope04_connect pelvis
Rope3_Seg01 null_rope03_connect
Rope3_Seg02 Rope3_Seg01
Rope3_Seg03 Rope3_Seg02
Rope3_Seg04 Rope3_Seg03
Rope3_Seg05 Rope3_Seg04
Rope3_Seg06 Rope3_Seg05
Rope3_Seg07 Rope3_Seg06
Rope3_Seg08 Rope3_Seg07
Rope3_Seg09 Rope3_Seg08
R_rear_hand01 Rope3_Seg09
R_rear_hand02 Rope3_Seg09
R_rear_hand03 Rope3_Seg09
Rope4_Seg01 null_rope04_connect
Rope4_Seg02 Rope4_Seg01
Rope4_Seg03 Rope4_Seg02
Rope4_Seg04 Rope4_Seg03
Rope4_Seg05 Rope4_Seg04
Rope4_Seg06 Rope4_Seg05
Rope4_Seg07 Rope4_Seg06
Rope4_Seg08 Rope4_Seg07
Rope4_Seg09 Rope4_Seg08
L_rear_hand01 Rope4_Seg09
L_rear_hand02 Rope4_Seg09
L_rear_hand03 Rope4_Seg09
[BasePosition]
#SegmentName Tx, Ty, Tz, Rx, Ry, Rz, BoneLength
MASTER 0.000000 0.000000 0.000000 -90.000000 0.000000 0.000000 10.000000 
root 0.000000 0.000000 0.000000 0.000000 0.000000 0.000000 10.000000 
chest 0.000000 0.000000 0.000000 0.000000 0.000000 0.000000 10.000000 
L_mid_tent01 0.000000 0.000000 0.000000 0.000000 0.000000 0.000000 10.000000 
R_mid_tent01 0.000000 0.000000 0.000000 0.000000 0.000000 0.000000 10.000000 
spine01 0.000000 0.000000 0.000000 0.000000 0.000000 0.000000 10.000000 
Bip01_Neck 0.000000 0.000000 0.000000 0.000000 0.000000 0.000000 10.000000 
L_humerus 0.000000 0.000000 0.000000 0.000000 0.000000 0.000000 10.000000 
R_humerus 0.000000 0.000000 0.000000 0.000000 0.000000 0.000000 10.000000 
weapon_bone 0.000000 0.000000 0.000000 0.000000 0.000000 0.000000 10.000000 
Bip01_Head 0.000000 0.000000 0.000000 0.000000 0.000000 0.000000 10.000000 
eye_left_bone 0.000000 0.000000 0.000000 0.000000 0.000000 0.000000 10.000000 
eye_right_bone 0.000000 0.000000 0.000000 0.000000 0.000000 0.000000 10.000000 
L_forearm 0.000000 0.000000 0.000000 0.000000 0.000000 0.000000 10.000000 
L_front_hand 0.000000 0.000000 0.000000 0.000000 0.000000 0.000000 10.000000 
L_weapon_bone 0.000000 0.000000 0.000000 0.000000 0.000000 0.000000 10.000000 
L_front_hand01_01 0.000000 0.000000 0.000000 0.000000 0.000000 0.000000 10.000000 
L_front_hand02_01 0.000000 0.000000 0.000000 0.000000 0.000000 0.000000 10.000000 
L_front_hand03_01 0.000000 0.000000 0.000000 0.000000 0.000000 0.000000 10.000000 
L_front_hand01_02 0.000000 0.000000 0.000000 0.000000 0.000000 0.000000 10.000000 
L_front_hand02_02 0.000000 0.000000 0.000000 0.000000 0.000000 0.000000 10.000000 
L_front_hand03_02 0.000000 0.000000 0.000000 0.000000 0.000000 0.000000 10.000000 
R_forearm 0.000000 0.000000 0.000000 0.000000 0.000000 0.000000 10.000000 
R_front_hand 0.000000 0.000000 0.000000 0.000000 0.000000 0.000000 10.000000 
R_weapon_bone 0.000000 0.000000 0.000000 0.000000 0.000000 0.000000 10.000000 
R_front_hand01_01 0.000000 0.000000 0.000000 0.000000 0.000000 0.000000 10.000000 
R_front_hand02_01 0.000000 0.000000 0.000000 0.000000 0.000000 0.000000 10.000000 
R_front_hand03_01 0.000000 0.000000 0.000000 0.000000 0.000000 0.000000 10.000000 
R_front_hand01_02 0.000000 0.000000 0.000000 0.000000 0.000000 0.000000 10.000000 
R_front_hand02_02 0.000000 0.000000 0.000000 0.000000 0.000000 0.000000 10.000000 
R_front_hand03_02 0.000000 0.000000 0.000000 0.000000 0.000000 0.000000 10.000000 
null_rope01_connect 0.000000 0.000000 0.000000 0.000000 0.000000 0.000000 10.000000 
Rope1_Seg01 0.000000 0.000000 0.000000 0.000000 0.000000 0.000000 10.000000 
Rope1_Seg02 0.000000 0.000000 0.000000 0.000000 0.000000 0.000000 10.000000 
Rope1_Seg03 0.000000 0.000000 0.000000 0.000000 0.000000 0.000000 10.000000 
Rope1_Seg04 0.000000 0.000000 0.000000 0.000000 0.000000 0.000000 10.000000 
Rope1_Seg05 0.000000 0.000000 0.000000 0.000000 0.000000 0.000000 10.000000 
Rope1_Seg06 0.000000 0.000000 0.000000 0.000000 0.000000 0.000000 10.000000 
Rope1_Seg07 0.000000 0.000000 0.000000 0.000000 0.000000 0.000000 10.000000 
Rope1_Seg09 0.000000 0.000000 0.000000 0.000000 0.000000 0.000000 10.000000 
L_mid_hand01 0.000000 0.000000 0.000000 0.000000 0.000000 0.000000 10.000000 
L_mid_hand02 0.000000 0.000000 0.000000 0.000000 0.000000 0.000000 10.000000 
L_mid_hand03 0.000000 0.000000 0.000000 0.000000 0.000000 0.000000 10.000000 
null_rope02_connect 0.000000 0.000000 0.000000 0.000000 0.000000 0.000000 10.000000 
Rope2_Seg01 0.000000 0.000000 0.000000 0.000000 0.000000 0.000000 10.000000 
Rope2_Seg02 0.000000 0.000000 0.000000 0.000000 0.000000 0.000000 10.000000 
Rope2_Seg03 0.000000 0.000000 0.000000 0.000000 0.000000 0.000000 10.000000 
Rope2_Seg04 0.000000 0.000000 0.000000 0.000000 0.000000 0.000000 10.000000 
Rope2_Seg05 0.000000 0.000000 0.000000 0.000000 0.000000 0.000000 10.000000 
Rope2_Seg06 0.000000 0.000000 0.000000 0.000000 0.000000 0.000000 10.000000 
Rope2_Seg07 0.000000 0.000000 0.000000 0.000000 0.000000 0.000000 10.000000 
Rope2_Seg09 0.000000 0.000000 0.000000 0.000000 0.000000 0.000000 10.000000 
R_mid_hand01 0.000000 0.000000 0.000000 0.000000 0.000000 0.000000 10.000000 
R_mid_hand02 0.000000 0.000000 0.000000 0.000000 0.000000 0.000000 10.000000 
R_mid_hand03 0.000000 0.000000 0.000000 0.000000 0.000000 0.000000 10.000000 
spine02 0.000000 0.000000 0.000000 0.000000 0.000000 0.000000 10.000000 
spine03 0.000000 0.000000 0.000000 0.000000 0.000000 0.000000 10.000000 
pelvis 0.000000 0.000000 0.000000 0.000000 0.000000 0.000000 10.000000 
null_rope03_connect 0.000000 0.000000 0.000000 0.000000 0.000000 0.000000 10.000000 
null_rope04_connect 0.000000 0.000000 0.000000 0.000000 0.000000 0.000000 10.000000 
Rope3_Seg01 0.000000 0.000000 0.000000 0.000000 0.000000 0.000000 10.000000 
Rope3_Seg02 0.000000 0.000000 0.000000 0.000000 0.000000 0.000000 10.000000 
Rope3_Seg03 0.000000 0.000000 0.000000 0.000000 0.000000 0.000000 10.000000 
Rope3_Seg04 0.000000 0.000000 0.000000 0.000000 0.000000 0.000000 10.000000 
Rope3_Seg05 0.000000 0.000000 0.000000 0.000000 0.000000 0.000000 10.000000 
Rope3_Seg06 0.000000 0.000000 0.000000 0.000000 0.000000 0.000000 10.000000 
Rope3_Seg07 0.000000 0.000000 0.000000 0.000000 0.000000 0.000000 10.000000 
Rope3_Seg08 0.000000 0.000000 0.000000 0.000000 0.000000 0.000000 10.000000 
Rope3_Seg09 0.000000 0.000000 0.000000 0.000000 0.000000 0.000000 10.000000 
R_rear_hand01 0.000000 0.000000 0.000000 0.000000 0.000000 0.000000 10.000000 
R_rear_hand02 0.000000 0.000000 0.000000 0.000000 0.000000 0.000000 10.000000 
R_rear_hand03 0.000000 0.000000 0.000000 0.000000 0.000000 0.000000 10.000000 
Rope4_Seg01 0.000000 0.000000 0.000000 0.000000 0.000000 0.000000 10.000000 
Rope4_Seg02 0.000000 0.000000 0.000000 0.000000 0.000000 0.000000 10.000000 
Rope4_Seg03 0.000000 0.000000 0.000000 0.000000 0.000000 0.000000 10.000000 
Rope4_Seg04 0.000000 0.000000 0.000000 0.000000 0.000000 0.000000 10.000000 
Rope4_Seg05 0.000000 0.000000 0.000000 0.000000 0.000000 0.000000 10.000000 
Rope4_Seg06 0.000000 0.000000 0.000000 0.000000 0.000000 0.000000 10.000000 
Rope4_Seg07 0.000000 0.000000 0.000000 0.000000 0.000000 0.000000 10.000000 
Rope4_Seg08 0.000000 0.000000 0.000000 0.000000 0.000000 0.000000 10.000000 
Rope4_Seg09 0.000000 0.000000 0.000000 0.000000 0.000000 0.000000 10.000000 
L_rear_hand01 0.000000 0.000000 0.000000 0.000000 0.000000 0.000000 10.000000 
L_rear_hand02 0.000000 0.000000 0.000000 0.000000 0.000000 0.000000 10.000000 
L_rear_hand03 0.000000 0.000000 0.000000 0.000000 0.000000 0.000000 10.000000 
#Beginning of Data. Separated by tabs
#Fr	Tx	Ty	Tz	Rx	Ry	Rz	SF
[MASTER]
26 0.000000 0.000000 0.000000 0.001660 0.001660 0.001660 0.000000
27 0.000000 0.000000 0.000000 0.001660 0.001660 0.001660 0.000000
[root]
26 -107.962410 257.960449 1639.223877 -100.894234 -30.990526 -50.368469 1662.905396
27 -84.628754 193.305908 1601.042603 -94.895561 -30.843870 -58.433342 1614.889038
[chest]
26 -84.512650 -34.090519 0.000000 -5.192284 1.746097 179.126923 91.129311
27 -84.512650 -34.090519 0.000000 -4.784779 1.413518 177.132111 91.129311
[L_mid_tent01]
26 27.299099 22.179132 -249.918930 -22.048534 33.843140 19.816944 252.381897
27 27.299099 22.179127 -249.918945 -21.987221 29.466833 18.390223 252.381912
[R_mid_tent01]
26 23.228794 24.509907 226.238495 -178.672867 -14.279434 48.965366 228.744751
27 23.228794 24.509907 226.238495 -176.157761 -15.686863 44.148155 228.744751
[spine01]
26 -0.361383 -0.195265 0.000000 -0.014511 -0.005545 22.157671 0.410763
27 -0.361383 -0.195265 0.000000 -0.010958 -0.004564 22.129114 0.410763
[Bip01_Neck]
26 165.484543 71.581718 0.000119 175.896118 1.177290 24.871183 180.302734
27 165.484543 71.581718 0.000119 175.896118 1.177290 24.871183 180.302734
[L_humerus]
26 -13.983130 -135.272980 -120.471481 -5.349698 68.184998 84.703629 181.680161
27 -13.983130 -135.272980 -120.471481 -5.391327 68.417030 84.662834 181.680161
[R_humerus]
26 -13.983309 -135.273102 125.287651 -138.670517 -69.675430 -136.371216 184.909012
27 -13.983309 -135.273102 125.287651 -130.987823 -76.175583 -142.076538 184.909012
[weapon_bone]
26 235.964890 -300.705902 0.000000 0.000000 -89.951546 -128.212341 382.234833
27 235.964890 -300.705902 0.000000 0.000000 -89.951546 -128.212341 382.234833
[Bip01_Head]
26 237.937759 193.557007 -9.997434 -36.063995 11.672162 -56.867500 306.885406
27 242.044617 178.720764 -9.226919 -26.660358 10.250037 -58.227055 301.018005
[eye_left_bone]
26 0.161493 120.300926 -57.821289 0.000000 -90.000000 -99.840431 133.475250
27 -0.092548 120.353737 -57.892441 0.000000 -90.000000 -99.840431 133.553604
[eye_right_bone]
26 0.166300 120.298874 71.279091 0.000000 -89.965736 80.156380 139.830460
27 -0.087818 120.351791 71.207893 0.000000 -89.965736 80.156380 139.839645
[L_forearm]
26 322.776093 0.000000 -0.000119 0.000402 -0.002313 -109.704506 322.776093
27 322.776093 0.000000 -0.000119 0.000400 -0.002313 -109.616760 322.776093
[L_front_hand]
26 241.149185 -0.042021 -3.300071 -178.667953 -1.835447 -27.422350 241.171753
27 241.149185 -0.042021 -3.300071 -178.667953 -1.835447 -27.422342 241.171753
[L_weapon_bone]
26 156.183838 0.000000 0.000000 0.000014 0.000007 0.000001 156.183838
27 156.183838 0.000000 0.000000 0.000014 0.000007 0.000001 156.183838
[L_front_hand01_01]
26 86.095154 20.947098 -0.655860 -0.366594 -0.477154 75.385574 88.609184
27 86.095154 20.947098 -0.655860 -0.366594 -0.477154 75.385574 88.609184
[L_front_hand02_01]
26 86.935165 -11.437475 24.513514 154.403519 -59.888931 -61.371990 91.046425
27 86.935165 -11.437475 24.513514 154.403519 -59.888931 -61.371990 91.046425
[L_front_hand03_01]
26 86.637497 -14.123976 -20.424902 -153.913849 58.118122 -62.702866 90.126129
27 86.637497 -14.123976 -20.424902 -153.913849 58.118122 -62.702866 90.126129
[L_front_hand01_02]
26 71.020905 -0.000179 0.000030 0.000334 -0.002323 -106.379684 71.020905
27 71.020905 -0.000179 0.000030 0.000334 -0.002323 -106.379684 71.020905
[L_front_hand02_02]
26 71.020927 -0.000119 0.000060 0.000334 -0.002323 -106.379684 71.020927
27 71.020927 -0.000119 0.000060 0.000334 -0.002323 -106.379684 71.020927
[L_front_hand03_02]
26 71.020905 -0.000060 0.000060 0.000334 -0.002323 -106.379684 71.020905
27 71.020905 -0.000060 0.000060 0.000334 -0.002323 -106.379684 71.020905
[R_forearm]
26 322.776428 -0.000060 0.000030 0.204821 0.052268 -104.702362 322.776428
27 322.776428 -0.000060 0.000030 0.203861 0.055897 -106.737320 322.776428
[R_front_hand]
26 238.847015 -0.006795 2.210259 34.022701 11.060944 -37.131123 238.857239
27 238.847015 -0.006795 2.210259 25.635859 9.433547 -40.510391 238.857239
[R_weapon_bone]
26 155.664093 0.002503 -0.000030 0.003487 0.001180 -90.988930 155.664078
27 155.664093 0.002503 -0.000030 0.003487 0.001180 -90.988930 155.664078
[R_front_hand01_01]
26 87.624611 14.231146 22.918642 -154.633499 -59.950619 61.746044 91.683487
27 87.624611 14.231146 22.918642 -154.633499 -59.950619 61.746044 91.683487
[R_front_hand02_01]
26 89.356956 14.367283 -19.491137 154.602661 58.302849 63.744389 92.579636
27 89.356956 14.367283 -19.491137 154.602661 58.302849 63.744389 92.579636
[R_front_hand03_01]
26 87.286232 -22.307278 -0.143439 0.162155 -0.423168 -75.767921 90.091743
27 87.286232 -22.307278 -0.143439 0.162155 -0.423168 -75.767921 90.091743
[R_front_hand01_02]
26 71.020905 0.000060 0.000119 0.002323 -0.000334 106.381714 71.020905
27 71.020905 0.000060 0.000119 0.002323 -0.000334 106.381714 71.020905
[R_front_hand02_02]
26 71.020844 -0.000030 -0.000119 0.002323 -0.000334 106.381714 71.020836
27 71.020844 -0.000030 -0.000119 0.002323 -0.000334 106.381714 71.020836
[R_front_hand03_02]
26 71.020905 0.000000 0.000030 0.002323 -0.000334 106.381714 71.020905
27 71.020905 0.000000 0.000030 0.002323 -0.000334 106.381714 71.020905
[null_rope01_connect]
26 328.732483 0.000000 -0.000238 -168.053635 -66.836365 -86.890816 328.732483
27 328.732483 0.000000 -0.000238 -166.351288 -70.473419 -90.708946 328.732483
[Rope1_Seg01]
26 0.000057 -0.000043 0.000127 21.891085 -10.510448 -102.147888 0.000146
27 0.000061 -0.000042 0.000132 23.098351 -6.534480 -104.775093 0.000152
[Rope1_Seg02]
26 139.999863 -0.000179 0.000000 10.562620 5.073087 -14.330862 139.999863
27 139.999863 -0.000179 0.000000 9.607239 5.174724 -12.372828 139.999863
[Rope1_Seg03]
26 139.999924 0.000060 -0.000060 57.018845 2.733780 -21.872711 139.999924
27 139.999924 0.000060 -0.000060 46.552212 3.299607 -16.510431 139.999924
[Rope1_Seg04]
26 139.999924 -0.000060 -0.000119 56.560509 -18.143942 -14.556211 139.999924
27 139.999924 -0.000060 -0.000119 67.324692 -10.582434 -14.578868 139.999924
[Rope1_Seg05]
26 139.999832 0.000119 -0.000060 13.893188 -13.284544 -0.134442 139.999832
27 139.999832 0.000119 -0.000060 18.714514 -13.175931 -0.085144 139.999832
[Rope1_Seg06]
26 139.999954 0.000119 -0.000060 6.884292 -7.639471 -0.572716 139.999954
27 139.999954 0.000119 -0.000060 5.813807 -6.517409 1.332063 139.999954
[Rope1_Seg07]
26 139.999985 0.000060 0.000000 2.658056 -4.933224 1.318194 139.999985
27 139.999985 0.000060 0.000000 2.088865 -3.649180 1.593096 139.999985
[Rope1_Seg09]
26 121.602913 0.000119 -0.000089 -89.793175 -1.359789 0.847147 121.602913
27 121.602913 0.000119 -0.000089 -89.793175 -1.359789 0.847147 121.602913
[L_mid_hand01]
26 103.859421 1.038730 8.195221 114.520287 -53.310486 -20.623234 104.187431
27 103.859421 1.038730 8.195221 114.520287 -53.310486 -20.623234 104.187431
[L_mid_hand02]
26 105.572853 -4.139662 -10.864139 -155.067673 38.166626 -52.448818 106.211075
27 105.572853 -4.139662 -10.864139 -155.067673 38.166626 -52.448818 106.211075
[L_mid_hand03]
26 104.641464 17.579376 -3.913581 -10.970130 15.317461 57.626949 106.179977
27 104.641464 17.579376 -3.913581 -10.970130 15.317461 57.626949 106.179977
[null_rope02_connect]
26 328.732849 0.000179 -0.000119 -85.159798 42.710674 22.457190 328.732849
27 328.732849 0.000179 -0.000119 -94.677704 46.509483 10.472570 328.732849
[Rope2_Seg01]
26 0.000095 0.000153 0.000064 164.692749 30.094046 -52.046848 0.000191
27 0.000095 0.000153 0.000066 157.873428 28.888142 -53.213364 0.000192
[Rope2_Seg02]
26 139.999741 -0.000060 -0.000119 37.100136 2.235543 -8.404174 139.999756
27 139.999741 -0.000060 -0.000119 35.458233 5.096542 -7.383377 139.999756
[Rope2_Seg03]
26 140.000107 0.000030 0.000000 52.992512 -5.234097 -12.909242 140.000107
27 140.000107 0.000030 0.000000 79.157471 -0.243926 -13.764100 140.000107
[Rope2_Seg04]
26 139.999802 0.000000 -0.000060 24.838978 -20.733335 -7.673241 139.999802
27 139.999802 0.000000 -0.000060 24.440155 -20.310764 -5.448247 139.999802
[Rope2_Seg05]
26 139.999985 -0.000060 0.000119 5.538928 -21.879974 1.860516 139.999985
27 139.999985 -0.000060 0.000119 2.537244 -19.006334 4.850284 139.999985
[Rope2_Seg06]
26 139.999893 -0.000030 -0.000119 -2.358502 -14.115200 9.509994 139.999893
27 139.999893 -0.000030 -0.000119 -3.632668 -11.596069 10.300411 139.999893
[Rope2_Seg07]
26 139.999893 0.000060 -0.000060 -2.045744 -11.793667 11.749403 139.999893
27 139.999893 0.000060 -0.000060 -2.023108 -10.188948 8.950713 139.999893
[Rope2_Seg09]
26 121.338966 0.000089 -0.000060 136.879395 0.546403 -1.506369 121.338966
27 121.338966 0.000089 -0.000060 136.879395 0.546403 -1.506368 121.338966
[R_mid_hand01]
26 104.680779 11.144459 -10.335981 -36.822865 32.362038 38.293228 105.778534
27 104.680779 11.144459 -10.335981 -37.864334 31.078987 36.311802 105.778534
[R_mid_hand02]
26 104.070427 2.443552 8.231699 70.131454 -43.140850 14.417580 104.424065
27 104.070427 2.443552 8.231699 70.765923 -41.145233 13.465270 104.424065
[R_mid_hand03]
26 106.028137 -11.221827 -5.996406 -170.058426 12.358618 -47.973366 106.788818
27 106.028137 -11.221827 -5.996406 -169.605835 11.984278 -45.843288 106.788818
[spine02]
26 129.756927 0.001550 0.000119 0.237025 -9.170535 -8.564142 129.756927
27 129.756927 0.001550 0.000119 0.294843 -8.115676 -9.465000 129.756927
[spine03]
26 78.614044 0.081507 -4.899008 1.917105 3.819220 16.818624 78.766579
27 78.614044 0.081502 -4.899008 1.911514 3.823784 16.713484 78.766579
[pelvis]
26 169.435242 0.051022 0.000000 -0.060873 -0.180088 14.347099 169.435257
27 169.435242 0.051022 0.000000 -0.060747 -0.180130 14.267350 169.435257
[null_rope03_connect]
26 -1.257226 -2.466202 137.391083 105.443893 -49.703331 -26.111912 137.418976
27 -1.257226 -2.466202 137.391083 98.105225 -56.451302 -19.799500 137.418976
[null_rope04_connect]
26 -1.259640 -2.480268 -137.844437 105.443893 -49.703331 -26.111912 137.872513
27 -1.259640 -2.480268 -137.844437 98.105225 -56.451302 -19.799500 137.872513
[Rope3_Seg01]
26 0.000000 0.000000 0.000000 -128.715820 -6.742909 -24.056377 0.000000
27 0.000000 0.000000 0.000000 -122.800056 1.688512 -32.017330 0.000000
[Rope3_Seg02]
26 139.999924 -0.000119 0.000060 16.257868 -12.857939 -4.627636 139.999924
27 139.999924 -0.000119 0.000060 4.645265 -7.214514 -4.031501 139.999924
[Rope3_Seg03]
26 139.999924 -0.000119 0.000119 27.273342 -13.152267 4.043345 139.999924
27 139.999924 -0.000119 0.000119 8.238812 -7.574939 -0.559611 139.999924
[Rope3_Seg04]
26 139.999924 0.000119 0.000000 19.483337 -8.238647 8.341034 139.999924
27 139.999924 0.000119 0.000000 11.463058 -7.177516 5.014925 139.999924
[Rope3_Seg05]
26 139.999924 -0.000238 0.000060 32.642185 -16.749119 -10.354452 139.999924
27 139.999924 -0.000238 0.000060 -1.593468 -9.765381 -17.223688 139.999924
[Rope3_Seg06]
26 139.999893 -0.000119 -0.000060 68.050934 -15.702426 -2.580098 139.999893
27 139.999893 -0.000119 -0.000060 -100.301857 -5.809089 -18.217661 139.999893
[Rope3_Seg07]
26 139.999771 0.000060 -0.000119 17.062344 -2.223973 5.222326 139.999771
27 139.999771 0.000060 -0.000119 -39.111263 6.760025 -1.408570 139.999771
[Rope3_Seg08]
26 139.999985 -0.000060 0.000000 6.517702 -0.301338 3.145367 139.999985
27 139.999985 -0.000060 0.000000 -6.982929 3.262854 1.626671 139.999985
[Rope3_Seg09]
26 90.185997 -0.000179 -0.000060 159.792526 -1.358243 -0.846482 90.185997
27 90.185997 -0.000179 -0.000060 159.792526 -1.358243 -0.846482 90.185997
[R_rear_hand01]
26 103.366196 -6.073594 -10.757982 -177.714203 24.565960 -73.910950 104.101845
27 103.366196 -6.073594 -10.757982 -177.714203 24.565960 -73.910950 104.101845
[R_rear_hand02]
26 100.509819 12.039542 -7.992327 -12.874829 36.868488 72.167213 101.543350
27 100.509819 12.039542 -7.992327 -12.874829 36.868488 72.167213 101.543350
[R_rear_hand03]
26 101.539970 5.215704 5.435467 71.484581 -71.816628 21.513813 101.819031
27 101.539970 5.215704 5.435467 71.484581 -71.816628 21.513813 101.819031
[Rope4_Seg01]
26 -0.000011 -0.000013 -0.000153 -17.564671 -2.035090 -15.444682 0.000154
27 -0.000011 -0.000010 -0.000153 6.605495 -2.008542 -24.810970 0.000153
[Rope4_Seg02]
26 139.999985 0.000060 0.000119 -16.367161 5.492723 6.534325 139.999985
27 139.999985 0.000060 0.000119 9.899627 7.906242 1.150136 139.999985
[Rope4_Seg03]
26 139.999924 0.000000 -0.000238 -108.156105 7.778542 20.552433 139.999924
27 139.999924 0.000000 -0.000238 131.884674 24.499233 2.326303 139.999924
[Rope4_Seg04]
26 139.999985 0.000000 0.000119 -18.184755 -47.410374 -0.824359 139.999985
27 139.999985 0.000000 0.000119 16.364054 -32.748524 -29.241158 139.999985
[Rope4_Seg05]
26 139.999802 -0.000060 -0.000119 -15.666598 -20.247042 22.404251 139.999802
27 139.999802 -0.000060 -0.000119 -23.076523 -23.999743 27.517080 139.999802
[Rope4_Seg06]
26 139.999924 0.000000 0.000060 -9.653817 -26.164566 22.049026 139.999924
27 139.999924 0.000000 0.000060 -2.572544 -13.929173 3.605600 139.999924
[Rope4_Seg07]
26 139.999802 0.000000 0.000000 0.157679 -10.152844 5.177999 139.999802
27 139.999802 0.000000 0.000000 -0.138607 -3.385798 0.728128 139.999802
[Rope4_Seg08]
26 139.999924 0.000000 0.000119 -1.437644 -0.126149 0.062594 139.999924
27 139.999924 0.000000 0.000119 -1.447465 0.001681 0.001639 139.999924
[Rope4_Seg09]
26 90.185791 0.000060 0.000060 -135.617828 2.228885 0.850567 90.185791
27 90.185791 0.000060 0.000060 -135.617828 2.228885 0.850567 90.185791
[L_rear_hand01]
26 101.696655 -8.392275 -7.654577 -19.915020 -33.950905 119.950104 102.329041
27 101.696655 -8.392275 -7.654577 -19.915020 -33.950905 119.950104 102.329041
[L_rear_hand02]
26 102.726799 -1.568258 5.773216 77.862221 61.878510 165.399200 102.900848
27 102.726799 -1.568258 5.773216 77.862236 61.878510 165.399200 102.900848
[L_rear_hand03]
26 104.552910 9.721220 -10.420293 -173.099182 -23.740307 -117.327896 105.519653
27 104.552910 9.721220 -10.420293 -173.099182 -23.740307 -117.327896 105.519653
